<svg width="85" height="85" viewBox="0 0 85 85" fill="none" xmlns="http://www.w3.org/2000/svg">
<g clip-path="url(#clip0)">
<path d="M46.6867 42.1115C45.7134 39.333 42.5837 37.8398 39.6963 38.7764C36.99 39.6542 35.4272 42.3741 36.0937 45.0463C38.0799 51.691 45.3449 57.654 51.9986 62.7209C52.4764 63.085 53.1704 63.0076 53.5489 62.5478C53.9273 62.088 53.8468 61.4202 53.369 61.0559C46.9823 56.193 40.0197 50.4996 38.2145 44.4601C37.7093 42.7683 38.725 41.0028 40.4832 40.5166C42.2414 40.0304 44.0761 41.0079 44.5813 42.6997C45.7863 46.7345 51.7779 51.7207 57.4782 56.0613C57.9561 56.4254 58.6501 56.3479 59.0286 55.8882C59.407 55.4284 59.3265 54.7605 58.8487 54.3963C55.8386 52.1093 47.8674 46.0401 46.6867 42.1115Z" fill="#FFC107"/>
<path d="M55.0507 39.3741C52.6518 32.2966 44.8795 28.2986 37.4312 30.3106C29.8161 32.4131 25.4143 40.058 27.5994 47.3856C27.6009 47.3908 27.6025 47.3961 27.604 47.4012C29.4159 53.4577 25.5318 55.1374 24.2937 55.5069C23.7124 55.6828 23.3893 56.279 23.5721 56.8384C23.7549 57.3979 24.3744 57.7087 24.9558 57.5328C28.3301 56.5178 31.6073 53.1031 29.7248 46.8129C27.869 40.6145 31.5864 34.1421 38.0279 32.3563C38.0313 32.3554 38.0347 32.3544 38.038 32.3535C44.407 30.6308 51.0429 34.1042 53.0005 40.1853C53.0266 40.2681 53.0637 40.3473 53.1109 40.421C53.2256 40.6037 53.4618 40.988 60.5546 46.5263C61.0275 46.8963 61.7226 46.8274 62.1072 46.3723C62.4917 45.9173 62.4201 45.2483 61.9471 44.8783C59.3695 42.8653 55.6024 39.8731 55.0507 39.3741Z" fill="#FFC107"/>
<path d="M50.9328 40.937C49.4087 35.8728 43.916 32.9476 38.6471 34.3943C33.4736 35.9312 30.4709 41.1114 31.8301 46.1547C34.059 55.9231 32.3928 58.1784 27.8202 59.5545C27.2388 59.7304 26.9157 60.3265 27.0985 60.886C27.2813 61.4454 27.9009 61.7563 28.4822 61.5804C34.8711 59.6691 36.2593 55.6513 33.9994 45.6981C32.9015 41.7514 35.2226 37.6715 39.2693 36.435C43.3698 35.3148 47.6405 37.5921 48.8273 41.5316C49.2687 42.9798 50.4406 44.9675 59.4777 51.8501C59.9555 52.2143 60.6495 52.1368 61.028 51.677C61.4064 51.2172 61.3259 50.5494 60.8481 50.1852C52.6452 43.9419 51.2416 41.9649 50.9328 40.937Z" fill="#FFC107"/>
<path d="M53.9693 55.7171C50.2353 52.9905 43.9854 48.429 42.4473 43.2857C42.269 42.725 41.6519 42.4095 41.0692 42.5812C40.5007 42.7487 40.1723 43.3193 40.3264 43.8718C42.0655 49.6947 48.6816 54.5237 52.6341 57.4097C53.4374 57.9662 54.2107 58.5616 54.9513 59.1935C55.3896 59.6009 56.0882 59.5893 56.5116 59.1675C56.9247 58.756 56.9247 58.1036 56.5116 57.6922C55.7035 56.9883 54.8547 56.3289 53.9693 55.7171Z" fill="#FFC107"/>
<path d="M47.9976 63.1031C46.8823 61.1122 44.8281 59.7695 42.4937 59.5057C38.742 59.5057 38.1616 65.6429 38.0799 66.8724C38.0422 67.4576 38.5046 67.9615 39.1127 67.998H39.1834C39.767 67.9991 40.2506 67.5626 40.2868 67.002C40.4259 64.8148 41.2954 61.6294 42.4937 61.6294C44.129 61.6294 45.2897 63.1456 46.2211 64.3624C46.5287 64.7845 46.8657 65.1861 47.2296 65.5644C47.6679 65.9719 48.3665 65.9601 48.7899 65.5384C49.2029 65.1268 49.2029 64.4745 48.7899 64.063C48.5045 63.7599 48.2397 63.4393 47.9976 63.1031Z" fill="#FFC107"/>
<path d="M38.0292 53.874C37.8218 53.3226 37.1891 53.0374 36.6161 53.237C36.0772 53.4248 35.7773 53.9784 35.9261 54.5111C36.8707 57.3503 35.0147 62.9226 32.2231 63.7954C31.6415 63.9706 31.3176 64.5662 31.4996 65.1259C31.6816 65.6855 32.3006 65.9972 32.8822 65.8221C32.8899 65.8198 32.8974 65.8174 32.905 65.8149C37.1508 64.4983 39.1988 57.4013 38.0292 53.874Z" fill="#FFC107"/>
<path d="M61.5919 39.3826C60.2126 38.9579 59.129 37.2591 57.8733 35.3202C55.2163 31.1876 51.5727 25.5283 41.3902 25.5283C31.0353 25.5401 22.644 33.6147 22.6319 43.5789C22.6319 44.1653 23.126 44.6407 23.7354 44.6407C24.3448 44.6407 24.8388 44.1653 24.8388 43.5789C24.8486 34.7865 32.2532 27.6613 41.3903 27.652C50.3435 27.652 53.4795 32.5235 55.9998 36.4393C57.4828 38.7435 58.7627 40.7332 60.9122 41.4042C61.4898 41.5915 62.1156 41.2928 62.3102 40.7371C62.5048 40.1814 62.1944 39.5791 61.6169 39.3919C61.6094 39.3894 61.6018 39.3871 61.5942 39.3847L61.5919 39.3826Z" fill="#FFC107"/>
<path d="M24.8387 52.0731C25.4481 52.0731 25.9422 51.5977 25.9421 51.0113C25.9421 50.8461 25.902 50.6833 25.8252 50.5357C25.3543 49.6863 25.0215 48.7724 24.8387 47.826C24.8387 47.2396 24.3446 46.7642 23.7352 46.7642C23.1258 46.7642 22.6318 47.2396 22.6318 47.826C22.8089 49.1065 23.2222 50.3463 23.8521 51.4871C24.0394 51.8462 24.4212 52.0731 24.8387 52.0731Z" fill="#FFC107"/>
<path d="M24.265 29.6204C24.7853 29.9256 25.4644 29.7673 25.7815 29.2666C25.7822 29.2656 25.7828 29.2647 25.7833 29.2637C26.7411 27.7432 31.4593 23.4047 40.2868 23.4047C48.77 23.4047 54.8058 27.5393 55.8937 29.2637C56.21 29.7651 56.8888 29.9248 57.4099 29.6204C57.9309 29.3161 58.0969 28.6629 57.7806 28.1615C56.2667 25.7619 49.5822 21.2811 40.2868 21.2811C30.4023 21.2811 25.1037 26.2482 23.8943 28.1636C23.5793 28.6645 23.7452 29.3162 24.265 29.6204Z" fill="#FFC107"/>
<path d="M30.7972 21.1877C31.3026 20.9754 31.7307 20.763 32.1368 20.5506C33.7964 19.7458 34.9902 19.1575 40.2867 19.1575C43.863 18.9679 47.44 19.519 50.7759 20.7736C51.1974 20.9244 51.6212 21.0751 52.0647 21.2217C52.1804 21.2603 52.302 21.2804 52.4244 21.2811C53.0338 21.2822 53.5287 20.8077 53.5299 20.2212C53.5307 19.7667 53.2309 19.3622 52.7841 19.2149C52.3559 19.0726 51.9499 18.9282 51.5439 18.7901C47.9627 17.4462 44.1259 16.8476 40.2868 17.034C34.4519 17.034 32.9909 17.756 31.1372 18.6713C30.7642 18.856 30.367 19.0514 29.9036 19.251C29.3373 19.4676 29.0607 20.085 29.2857 20.6299C29.5108 21.1748 30.1523 21.441 30.7186 21.2244C30.7476 21.2134 30.776 21.2012 30.8039 21.1877H30.7972Z" fill="#FFC107"/>
<path d="M60.1993 35.4072C60.4067 35.9586 61.0394 36.2438 61.6124 36.0442C62.1513 35.8565 62.4512 35.3028 62.3024 34.7701C61.6763 33.2102 60.8997 31.71 59.983 30.2894C59.6637 29.7898 58.9839 29.6338 58.4647 29.9411C57.9455 30.2484 57.7834 30.9025 58.1027 31.4021C58.9242 32.6745 59.6259 34.0148 60.1993 35.4072Z" fill="#FFC107"/>
<path d="M52.6761 62.9502C52.4278 62.95 52.1867 62.8691 51.992 62.7208C45.3384 57.6518 38.08 51.6909 36.0938 45.0462C35.3826 42.1951 37.2081 39.3292 40.171 38.6448C42.948 38.0035 45.7746 39.5073 46.6868 42.1114C47.8608 46.0379 55.832 52.1092 58.8245 54.3942C59.3139 54.7437 59.4162 55.4088 59.053 55.8796C58.6898 56.3505 57.9987 56.449 57.5094 56.0995C57.4913 56.0866 57.4735 56.073 57.4562 56.0591C51.7559 51.7185 45.7598 46.7344 44.5571 42.6975C44.0519 41.0063 42.2176 40.0294 40.4601 40.5155C38.7026 41.0017 37.6873 42.7668 38.1926 44.4579C39.9978 50.4974 46.9604 56.1908 53.3449 61.0538C53.8227 61.4178 53.9033 62.0856 53.525 62.5453C53.3154 62.8 52.9962 62.9484 52.6586 62.948L52.6761 62.9502Z" fill="#739ACA"/>
<path d="M24.6181 57.5753C24.0087 57.5742 23.5155 57.098 23.5167 56.5116C23.5175 56.0485 23.8302 55.6394 24.2893 55.5006C25.5229 55.129 29.407 53.4492 27.5996 47.3949C25.4096 40.0686 29.8063 32.4211 37.4199 30.3138C37.4236 30.3128 37.4275 30.3117 37.4312 30.3107C44.8804 28.2973 52.654 32.2956 55.053 39.3742C55.6025 39.8711 59.3696 42.8654 61.9472 44.8785C62.4084 45.2618 62.4594 45.9323 62.0611 46.3761C61.6798 46.801 61.0208 46.8668 60.5569 46.5265C53.4618 40.986 53.2257 40.6017 53.1109 40.419C53.0653 40.3455 53.029 40.2671 53.0028 40.1854C51.0452 34.1032 44.4078 30.6295 38.0381 32.3536C31.5952 34.1349 27.873 40.6048 29.7242 46.8045C29.7244 46.8052 29.7246 46.806 29.7248 46.8067C31.6051 53.0946 28.33 56.5114 24.9535 57.5266C24.845 57.5595 24.7319 57.576 24.6181 57.5753Z" fill="#739ACA"/>
<path d="M28.149 61.6293C27.5396 61.6282 27.0465 61.1519 27.0476 60.5655C27.0484 60.1025 27.3612 59.6933 27.8203 59.5545C32.3929 58.1784 34.0569 55.9189 31.8279 46.1547C30.4698 41.1115 33.4722 35.9321 38.6449 34.3943C43.9139 32.9513 49.4045 35.8749 50.9327 40.937C51.2395 41.9627 52.6408 43.9397 60.8305 50.1789C61.3199 50.5284 61.4222 51.1935 61.059 51.6643C60.6958 52.1352 60.0047 52.2337 59.5154 51.8842C59.4973 51.8712 59.4795 51.8577 59.4622 51.8438C50.4141 44.9591 49.2422 42.9693 48.8119 41.5252C47.6293 37.5815 43.3535 35.3021 39.2517 36.4286C35.2005 37.6661 32.8791 41.7528 33.9839 45.7024C36.2548 55.6578 34.8666 59.665 28.4668 61.5847C28.3638 61.6146 28.2567 61.6297 28.149 61.6293Z" fill="#739ACA"/>
<path d="M55.7348 59.5057C55.442 59.5062 55.1609 59.3948 54.9536 59.1957C54.2128 58.5633 53.4394 57.9672 52.6364 57.4098C48.6839 54.5238 42.0677 49.6948 40.3287 43.8719C40.1504 43.3112 40.4781 42.7175 41.0608 42.5458C41.6435 42.3742 42.2605 42.6895 42.4389 43.2503C42.4426 43.262 42.4462 43.2739 42.4495 43.2857C43.9942 48.429 50.2353 52.9905 53.9693 55.7171C54.8552 56.3299 55.7047 56.9899 56.5138 57.6942C56.944 58.1095 56.943 58.7818 56.5113 59.1958C56.3051 59.3938 56.026 59.5051 55.7348 59.5057Z" fill="#739ACA"/>
<path d="M39.1833 68H39.1127C38.5045 67.9636 38.0421 67.4597 38.0799 66.8745C38.1593 65.6449 38.7419 59.5078 42.4936 59.5078C44.8329 59.7695 46.8923 61.113 48.0107 63.1073C48.2514 63.4439 48.5153 63.7646 48.8008 64.0672C49.2242 64.489 49.212 65.1612 48.7736 65.5686C48.346 65.9661 47.6681 65.9661 47.2405 65.5686C46.8758 65.1916 46.5389 64.7907 46.232 64.3688C45.2918 63.1456 44.1311 61.6294 42.4935 61.6294C41.2974 61.6294 40.4257 64.8148 40.2867 67.0042C40.2506 67.5646 39.767 68.0011 39.1833 68Z" fill="#739ACA"/>
<path d="M32.5628 65.8764C31.9533 65.8775 31.4584 65.4031 31.4572 64.8167C31.4563 64.3547 31.7659 63.9452 32.2229 63.8038C35.0124 62.931 36.8573 57.3587 35.926 54.5195C35.7078 53.972 35.9923 53.358 36.5613 53.148C37.1302 52.9381 37.7684 53.2119 37.9866 53.7593C38.0026 53.7996 38.0161 53.8407 38.0269 53.8825C39.1988 57.4098 37.1442 64.5004 32.9026 65.834C32.7923 65.8651 32.6777 65.8794 32.5628 65.8764Z" fill="#739ACA"/>
<path d="M23.7353 44.6406C23.1259 44.6406 22.6318 44.1652 22.6318 43.5788C22.644 33.6146 31.0352 25.54 41.3901 25.5283C51.5726 25.5283 55.2161 31.1876 57.8754 35.3202C59.1311 37.2675 60.2146 38.9515 61.594 39.3826C62.1756 39.5578 62.4995 40.1535 62.3175 40.7131C62.1356 41.2728 61.5164 41.5844 60.9348 41.4093C60.9272 41.407 60.9196 41.4046 60.9121 41.4022C58.7626 40.7311 57.4826 38.7413 55.9996 36.4372C53.4793 32.5235 50.3435 27.652 41.3901 27.652C32.253 27.6613 24.8484 34.7865 24.8387 43.5789C24.8387 44.1652 24.3447 44.6406 23.7353 44.6406Z" fill="#739ACA"/>
<path d="M24.8387 52.0731C24.4203 52.0739 24.0375 51.8469 23.85 51.487C23.2203 50.3463 22.8078 49.1064 22.6318 47.8259C22.6318 47.2395 23.1259 46.764 23.7353 46.764C24.3447 46.764 24.8388 47.2395 24.8388 47.8259C25.0221 48.7722 25.3548 49.686 25.8252 50.5355C26.0982 51.0598 25.8779 51.6978 25.333 51.9605C25.1795 52.0346 25.0103 52.0731 24.8387 52.0731Z" fill="#739ACA"/>
<path d="M56.8383 29.7754C56.452 29.7756 56.0938 29.5815 55.8937 29.2637C54.808 27.5393 48.77 23.4047 40.2868 23.4047C31.4594 23.4047 26.7411 27.7432 25.7811 29.2637C25.4838 29.7755 24.8115 29.9586 24.2796 29.6724C23.7477 29.3863 23.5574 28.7394 23.8548 28.2275C23.8679 28.205 23.8818 28.183 23.8965 28.1615C25.1037 26.2482 30.4024 21.2811 40.2869 21.2811C49.5823 21.2811 56.2669 25.7619 57.7807 28.1636C58.0964 28.6652 57.9297 29.3181 57.4084 29.6218C57.2364 29.7221 57.0393 29.7752 56.8383 29.7754Z" fill="#739ACA"/>
<path d="M52.4245 21.2812C52.3021 21.2814 52.1806 21.2621 52.0648 21.2238C51.6234 21.0773 51.1954 20.9244 50.7738 20.7758C47.4386 19.521 43.8625 18.9691 40.2868 19.1576C34.9903 19.1576 33.7964 19.7458 32.1479 20.5592C31.7419 20.761 31.3116 20.9712 30.8084 21.1963C30.2502 21.4338 29.5975 21.1909 29.3507 20.6537C29.1039 20.1165 29.3563 19.4885 29.9146 19.251C30.3802 19.0492 30.7753 18.8539 31.1505 18.6692C32.991 17.7561 34.4542 17.034 40.2869 17.034C44.1249 16.8456 47.9608 17.442 51.5419 18.7838C51.9479 18.9283 52.3541 19.0748 52.7821 19.2086C53.3624 19.3878 53.6818 19.9857 53.4956 20.5441C53.3466 20.9902 52.9114 21.2898 52.4245 21.2812Z" fill="#739ACA"/>
<path d="M61.252 36.1462C60.7721 36.1459 60.3474 35.8471 60.2015 35.4072C59.6282 34.012 58.9266 32.6687 58.1049 31.3936C57.7856 30.894 57.9476 30.2399 58.4669 29.9326C58.9861 29.6253 59.6658 29.7812 59.9852 30.2809C60.9011 31.7017 61.6768 33.2018 62.3024 34.7616C62.4876 35.3203 62.1672 35.9177 61.5866 36.0959C61.4785 36.1291 61.3655 36.1462 61.252 36.1462Z" fill="#739ACA"/>
</g>
<circle cx="42.5" cy="42.5" r="42" stroke="#739ACA"/>
<defs>
<clipPath id="clip0">
<rect width="53" height="51" fill="white" transform="translate(16 17)"/>
</clipPath>
</defs>
</svg>
