<svg width="225" height="125" viewBox="0 0 225 125" fill="none" xmlns="http://www.w3.org/2000/svg">
<path d="M55.9378 104.576H52.3058V114H50.1138V104.576H46.4818V102.64H55.9378V104.576ZM59.1999 114.16C58.5279 114.16 57.9199 114.048 57.3759 113.824C56.8319 113.589 56.3679 113.275 55.9839 112.88C55.5999 112.485 55.3013 112.027 55.0879 111.504C54.8853 110.981 54.7839 110.432 54.7839 109.856C54.7839 109.259 54.8853 108.699 55.0879 108.176C55.2906 107.643 55.5839 107.179 55.9679 106.784C56.3519 106.379 56.8159 106.059 57.3599 105.824C57.9146 105.589 58.5333 105.472 59.2159 105.472C59.8986 105.472 60.5066 105.589 61.0399 105.824C61.5839 106.059 62.0426 106.373 62.4159 106.768C62.7999 107.163 63.0879 107.621 63.2799 108.144C63.4826 108.667 63.5839 109.211 63.5839 109.776C63.5839 109.915 63.5786 110.048 63.5679 110.176C63.5679 110.304 63.5573 110.411 63.5359 110.496H57.0559C57.0879 110.827 57.1679 111.12 57.2959 111.376C57.4239 111.632 57.5893 111.851 57.7919 112.032C57.9946 112.213 58.2239 112.352 58.4799 112.448C58.7359 112.544 59.0026 112.592 59.2799 112.592C59.7066 112.592 60.1066 112.491 60.4799 112.288C60.8639 112.075 61.1253 111.797 61.2639 111.456L63.1039 111.968C62.7946 112.608 62.2986 113.136 61.6159 113.552C60.9439 113.957 60.1386 114.16 59.1999 114.16ZM61.3759 109.104C61.3226 108.475 61.0879 107.973 60.6719 107.6C60.2666 107.216 59.7706 107.024 59.1839 107.024C58.8959 107.024 58.6239 107.077 58.3679 107.184C58.1226 107.28 57.9039 107.419 57.7119 107.6C57.5199 107.781 57.3599 108 57.2319 108.256C57.1146 108.512 57.0453 108.795 57.0239 109.104H61.3759ZM77.9141 114H75.7701V109.296C75.7701 108.624 75.6527 108.133 75.4181 107.824C75.1941 107.515 74.8794 107.36 74.4741 107.36C74.0474 107.36 73.6474 107.525 73.2741 107.856C72.9007 108.176 72.6341 108.597 72.4741 109.12V114H70.3301V109.296C70.3301 108.624 70.2127 108.133 69.9781 107.824C69.7541 107.515 69.4394 107.36 69.0341 107.36C68.6181 107.36 68.2181 107.52 67.8341 107.84C67.4607 108.16 67.1941 108.581 67.0341 109.104V114H64.8901V105.616H66.8261V107.168C67.1354 106.624 67.5567 106.208 68.0901 105.92C68.6341 105.621 69.2527 105.472 69.9461 105.472C70.6501 105.472 71.1941 105.643 71.5781 105.984C71.9621 106.325 72.2074 106.747 72.3141 107.248C72.6554 106.672 73.0874 106.235 73.6101 105.936C74.1327 105.627 74.7301 105.472 75.4021 105.472C75.9141 105.472 76.3354 105.568 76.6661 105.76C76.9967 105.952 77.2527 106.203 77.4341 106.512C77.6154 106.821 77.7381 107.173 77.8021 107.568C77.8767 107.963 77.9141 108.363 77.9141 108.768V114ZM84.8047 114.16C84.1434 114.16 83.5674 114.016 83.0767 113.728C82.586 113.429 82.202 113.029 81.9247 112.528V117.408H79.7807V105.616H81.6527V107.056C81.962 106.565 82.362 106.181 82.8527 105.904C83.3434 105.616 83.9087 105.472 84.5487 105.472C85.114 105.472 85.6367 105.589 86.1167 105.824C86.5967 106.048 87.0074 106.357 87.3487 106.752C87.7007 107.136 87.9727 107.595 88.1647 108.128C88.3674 108.651 88.4687 109.205 88.4687 109.792C88.4687 110.4 88.378 110.971 88.1967 111.504C88.0154 112.037 87.7594 112.501 87.4287 112.896C87.1087 113.291 86.7247 113.6 86.2767 113.824C85.8287 114.048 85.338 114.16 84.8047 114.16ZM84.0847 112.336C84.4047 112.336 84.698 112.267 84.9647 112.128C85.242 111.989 85.4767 111.803 85.6687 111.568C85.8607 111.333 86.01 111.061 86.1167 110.752C86.2234 110.443 86.2767 110.123 86.2767 109.792C86.2767 109.44 86.218 109.115 86.1007 108.816C85.9834 108.507 85.818 108.24 85.6047 108.016C85.402 107.792 85.1567 107.616 84.8687 107.488C84.5914 107.36 84.2874 107.296 83.9567 107.296C83.754 107.296 83.546 107.333 83.3327 107.408C83.1194 107.472 82.922 107.568 82.7407 107.696C82.5594 107.824 82.394 107.973 82.2447 108.144C82.106 108.315 81.9994 108.501 81.9247 108.704V110.672C82.1167 111.152 82.41 111.552 82.8047 111.872C83.1994 112.181 83.626 112.336 84.0847 112.336ZM93.7933 114.16C93.1106 114.16 92.4973 114.043 91.9533 113.808C91.4093 113.573 90.9453 113.259 90.5613 112.864C90.188 112.459 89.9 111.995 89.6973 111.472C89.4946 110.949 89.3933 110.4 89.3933 109.824C89.3933 109.237 89.4946 108.683 89.6973 108.16C89.9 107.637 90.188 107.179 90.5613 106.784C90.9453 106.379 91.4093 106.059 91.9533 105.824C92.4973 105.589 93.1106 105.472 93.7933 105.472C94.476 105.472 95.084 105.589 95.6173 105.824C96.1613 106.059 96.62 106.379 96.9933 106.784C97.3773 107.179 97.6706 107.637 97.8733 108.16C98.076 108.683 98.1773 109.237 98.1773 109.824C98.1773 110.4 98.076 110.949 97.8733 111.472C97.6706 111.995 97.3826 112.459 97.0093 112.864C96.636 113.259 96.1773 113.573 95.6333 113.808C95.0893 114.043 94.476 114.16 93.7933 114.16ZM91.6013 109.824C91.6013 110.197 91.6546 110.539 91.7613 110.848C91.8786 111.147 92.0333 111.408 92.2253 111.632C92.428 111.856 92.6626 112.032 92.9293 112.16C93.196 112.277 93.484 112.336 93.7933 112.336C94.1026 112.336 94.3906 112.277 94.6573 112.16C94.924 112.032 95.1533 111.856 95.3453 111.632C95.548 111.408 95.7026 111.141 95.8093 110.832C95.9266 110.523 95.9853 110.181 95.9853 109.808C95.9853 109.445 95.9266 109.109 95.8093 108.8C95.7026 108.491 95.548 108.224 95.3453 108C95.1533 107.776 94.924 107.605 94.6573 107.488C94.3906 107.36 94.1026 107.296 93.7933 107.296C93.484 107.296 93.196 107.36 92.9293 107.488C92.6626 107.616 92.428 107.792 92.2253 108.016C92.0333 108.24 91.8786 108.507 91.7613 108.816C91.6546 109.125 91.6013 109.461 91.6013 109.824ZM107.884 104.64L106.508 104.224L107.372 102.32H109.372L107.884 104.64ZM107.356 114.16C106.684 114.16 106.076 114.048 105.532 113.824C104.988 113.589 104.524 113.275 104.14 112.88C103.756 112.485 103.458 112.027 103.244 111.504C103.042 110.981 102.94 110.432 102.94 109.856C102.94 109.259 103.042 108.699 103.244 108.176C103.447 107.643 103.74 107.179 104.124 106.784C104.508 106.379 104.972 106.059 105.516 105.824C106.071 105.589 106.69 105.472 107.372 105.472C108.055 105.472 108.663 105.589 109.196 105.824C109.74 106.059 110.199 106.373 110.572 106.768C110.956 107.163 111.244 107.621 111.436 108.144C111.639 108.667 111.74 109.211 111.74 109.776C111.74 109.915 111.735 110.048 111.724 110.176C111.724 110.304 111.714 110.411 111.692 110.496H105.212C105.244 110.827 105.324 111.12 105.452 111.376C105.58 111.632 105.746 111.851 105.948 112.032C106.151 112.213 106.38 112.352 106.636 112.448C106.892 112.544 107.159 112.592 107.436 112.592C107.863 112.592 108.263 112.491 108.636 112.288C109.02 112.075 109.282 111.797 109.42 111.456L111.26 111.968C110.951 112.608 110.455 113.136 109.772 113.552C109.1 113.957 108.295 114.16 107.356 114.16ZM109.532 109.104C109.479 108.475 109.244 107.973 108.828 107.6C108.423 107.216 107.927 107.024 107.34 107.024C107.052 107.024 106.78 107.077 106.524 107.184C106.279 107.28 106.06 107.419 105.868 107.6C105.676 107.781 105.516 108 105.388 108.256C105.271 108.512 105.202 108.795 105.18 109.104H109.532ZM120.362 114.16C119.786 114.16 119.253 114.048 118.762 113.824C118.271 113.6 117.85 113.291 117.498 112.896C117.146 112.501 116.869 112.043 116.666 111.52C116.474 110.987 116.378 110.416 116.378 109.808C116.378 109.2 116.469 108.635 116.65 108.112C116.842 107.589 117.103 107.131 117.434 106.736C117.765 106.341 118.159 106.032 118.618 105.808C119.077 105.584 119.578 105.472 120.122 105.472C120.741 105.472 121.295 105.621 121.786 105.92C122.287 106.219 122.677 106.608 122.954 107.088V102.32H125.098V111.536C125.098 111.76 125.135 111.92 125.21 112.016C125.285 112.112 125.413 112.165 125.594 112.176V114C125.221 114.075 124.917 114.112 124.682 114.112C124.298 114.112 123.983 114.016 123.738 113.824C123.493 113.632 123.354 113.381 123.322 113.072L123.274 112.544C122.965 113.077 122.543 113.483 122.01 113.76C121.487 114.027 120.938 114.16 120.362 114.16ZM120.922 112.336C121.125 112.336 121.333 112.304 121.546 112.24C121.759 112.165 121.957 112.064 122.138 111.936C122.319 111.808 122.479 111.659 122.618 111.488C122.767 111.317 122.879 111.131 122.954 110.928V108.928C122.869 108.693 122.746 108.48 122.586 108.288C122.437 108.085 122.261 107.915 122.058 107.776C121.866 107.627 121.658 107.509 121.434 107.424C121.221 107.339 121.007 107.296 120.794 107.296C120.474 107.296 120.175 107.365 119.898 107.504C119.631 107.643 119.402 107.835 119.21 108.08C119.018 108.315 118.869 108.587 118.762 108.896C118.655 109.205 118.602 109.525 118.602 109.856C118.602 110.208 118.661 110.533 118.778 110.832C118.895 111.131 119.055 111.392 119.258 111.616C119.461 111.84 119.701 112.016 119.978 112.144C120.266 112.272 120.581 112.336 120.922 112.336ZM127.203 114V105.616H129.347V114H127.203ZM127.203 104.448V102.32H129.347V104.448H127.203ZM139.073 114H136.929V109.296C136.929 108.624 136.811 108.133 136.577 107.824C136.342 107.515 136.017 107.36 135.601 107.36C135.387 107.36 135.169 107.403 134.945 107.488C134.721 107.573 134.507 107.696 134.305 107.856C134.113 108.005 133.937 108.187 133.777 108.4C133.617 108.613 133.499 108.848 133.425 109.104V114H131.281V105.616H133.217V107.168C133.526 106.635 133.974 106.219 134.561 105.92C135.147 105.621 135.809 105.472 136.545 105.472C137.067 105.472 137.494 105.568 137.825 105.76C138.155 105.952 138.411 106.203 138.593 106.512C138.774 106.821 138.897 107.173 138.961 107.568C139.035 107.963 139.073 108.363 139.073 108.768V114ZM148.729 114H146.585V109.296C146.585 108.635 146.462 108.149 146.217 107.84C145.972 107.52 145.625 107.36 145.177 107.36C144.985 107.36 144.782 107.403 144.569 107.488C144.356 107.573 144.153 107.696 143.961 107.856C143.769 108.005 143.593 108.187 143.433 108.4C143.273 108.613 143.156 108.848 143.081 109.104V114H140.937V102.32H143.081V107.168C143.39 106.624 143.806 106.208 144.329 105.92C144.862 105.621 145.449 105.472 146.089 105.472C146.633 105.472 147.076 105.568 147.417 105.76C147.758 105.941 148.025 106.187 148.217 106.496C148.409 106.805 148.542 107.157 148.617 107.552C148.692 107.947 148.729 108.352 148.729 108.768V114ZM154.481 114.16C153.809 114.16 153.201 114.048 152.657 113.824C152.113 113.589 151.649 113.275 151.265 112.88C150.881 112.485 150.583 112.027 150.369 111.504C150.167 110.981 150.065 110.432 150.065 109.856C150.065 109.259 150.167 108.699 150.369 108.176C150.572 107.643 150.865 107.179 151.249 106.784C151.633 106.379 152.097 106.059 152.641 105.824C153.196 105.589 153.815 105.472 154.497 105.472C155.18 105.472 155.788 105.589 156.321 105.824C156.865 106.059 157.324 106.373 157.697 106.768C158.081 107.163 158.369 107.621 158.561 108.144C158.764 108.667 158.865 109.211 158.865 109.776C158.865 109.915 158.86 110.048 158.849 110.176C158.849 110.304 158.839 110.411 158.817 110.496H152.337C152.369 110.827 152.449 111.12 152.577 111.376C152.705 111.632 152.871 111.851 153.073 112.032C153.276 112.213 153.505 112.352 153.761 112.448C154.017 112.544 154.284 112.592 154.561 112.592C154.988 112.592 155.388 112.491 155.761 112.288C156.145 112.075 156.407 111.797 156.545 111.456L158.385 111.968C158.076 112.608 157.58 113.136 156.897 113.552C156.225 113.957 155.42 114.16 154.481 114.16ZM156.657 109.104C156.604 108.475 156.369 107.973 155.953 107.6C155.548 107.216 155.052 107.024 154.465 107.024C154.177 107.024 153.905 107.077 153.649 107.184C153.404 107.28 153.185 107.419 152.993 107.6C152.801 107.781 152.641 108 152.513 108.256C152.396 108.512 152.327 108.795 152.305 109.104H156.657ZM160.171 114V105.616H162.315V114H160.171ZM160.171 104.448V102.32H162.315V104.448H160.171ZM169.241 107.472C168.591 107.483 168.009 107.611 167.497 107.856C166.985 108.091 166.617 108.448 166.393 108.928V114H164.249V105.616H166.217V107.408C166.367 107.12 166.543 106.864 166.745 106.64C166.948 106.405 167.167 106.203 167.401 106.032C167.636 105.861 167.871 105.733 168.105 105.648C168.351 105.552 168.585 105.504 168.809 105.504C168.927 105.504 169.012 105.504 169.065 105.504C169.129 105.504 169.188 105.509 169.241 105.52V107.472ZM173.887 114.16C173.204 114.16 172.591 114.043 172.047 113.808C171.503 113.573 171.039 113.259 170.655 112.864C170.282 112.459 169.994 111.995 169.791 111.472C169.588 110.949 169.487 110.4 169.487 109.824C169.487 109.237 169.588 108.683 169.791 108.16C169.994 107.637 170.282 107.179 170.655 106.784C171.039 106.379 171.503 106.059 172.047 105.824C172.591 105.589 173.204 105.472 173.887 105.472C174.57 105.472 175.178 105.589 175.711 105.824C176.255 106.059 176.714 106.379 177.087 106.784C177.471 107.179 177.764 107.637 177.967 108.16C178.17 108.683 178.271 109.237 178.271 109.824C178.271 110.4 178.17 110.949 177.967 111.472C177.764 111.995 177.476 112.459 177.103 112.864C176.73 113.259 176.271 113.573 175.727 113.808C175.183 114.043 174.57 114.16 173.887 114.16ZM171.695 109.824C171.695 110.197 171.748 110.539 171.855 110.848C171.972 111.147 172.127 111.408 172.319 111.632C172.522 111.856 172.756 112.032 173.023 112.16C173.29 112.277 173.578 112.336 173.887 112.336C174.196 112.336 174.484 112.277 174.751 112.16C175.018 112.032 175.247 111.856 175.439 111.632C175.642 111.408 175.796 111.141 175.903 110.832C176.02 110.523 176.079 110.181 176.079 109.808C176.079 109.445 176.02 109.109 175.903 108.8C175.796 108.491 175.642 108.224 175.439 108C175.247 107.776 175.018 107.605 174.751 107.488C174.484 107.36 174.196 107.296 173.887 107.296C173.578 107.296 173.29 107.36 173.023 107.488C172.756 107.616 172.522 107.792 172.319 108.016C172.127 108.24 171.972 108.507 171.855 108.816C171.748 109.125 171.695 109.461 171.695 109.824Z" fill="#4F9AF5"/>
<path d="M98.3291 93.1751C98.8278 93.6337 99.6396 93.6388 100.145 93.1848L106.382 87.5792C107.441 86.6125 107.764 85.1813 107.298 83.9372L108.639 82.7568C109.362 82.1203 110.313 81.7695 111.318 81.7695H128.42C131.454 81.7695 134.322 80.7066 136.496 78.7764C136.586 78.6971 135.817 79.523 148.164 66.0611C149.995 64.0847 149.721 61.1168 147.552 59.4444C145.397 57.7876 142.169 58.0256 140.333 59.9681L132.742 67.086C131.783 66.0098 130.321 65.3389 128.742 65.3389H114.396C112.355 64.5598 110.189 64.1654 107.954 64.1654C101.759 64.1654 96.3501 66.7756 93.4472 71.6695C92.2242 71.4581 90.9344 71.7956 90.0065 72.6421L83.8865 78.2417C83.3868 78.6989 83.3858 79.4386 83.8845 79.8972L98.3291 93.1751ZM107.954 66.5124C109.924 66.5124 111.829 66.8742 113.617 67.5877C113.78 67.6528 113.956 67.6863 114.133 67.6863H128.742C130.137 67.6863 131.315 68.7241 131.315 70.0333C131.315 71.3278 130.161 72.3807 128.742 72.3807H118.246C117.536 72.3807 116.959 72.9062 116.959 73.5542C116.959 74.2026 117.536 74.7277 118.246 74.7277H128.742C131.58 74.7277 133.888 72.6219 133.888 70.0333C133.888 69.8269 133.872 69.6224 133.843 69.4197C141.186 62.5333 142.222 61.5657 142.266 61.5176C143.183 60.5303 144.81 60.4051 145.893 61.2379C146.977 62.0738 147.114 63.5578 146.195 64.5506L134.656 77.1347C132.971 78.6104 130.759 79.4226 128.42 79.4226H111.318C109.642 79.4226 108.056 80.0072 106.852 81.0679L105.759 82.0305L95.6806 72.8365C98.0361 68.8052 102.456 66.5124 107.954 66.5124ZM91.8271 74.3008C92.2514 73.9137 92.9028 73.844 93.4201 74.1357C93.6427 74.2595 93.0034 73.7285 104.563 84.2591C105.077 84.7282 105.049 85.4757 104.57 85.9132L99.2525 90.692L86.6119 79.0722L91.8271 74.3008Z" fill="#4F9AF5"/>
<path d="M131.969 14.3021C131.993 13.9257 132.004 13.5468 132.004 13.1569V7.57208C132.004 6.94864 132.509 6.44324 133.132 6.44324C133.756 6.44324 134.261 5.98428 134.261 5.41822V1.31814C134.261 0.752078 133.756 0.293121 133.132 0.293121H101.525C100.901 0.293121 100.396 0.752078 100.396 1.31814V5.41822C100.396 5.98428 100.901 6.44324 101.525 6.44324C102.148 6.44324 102.654 6.94864 102.654 7.57208V13.1569C102.654 13.5468 102.665 13.9237 102.688 14.3041C103.051 18.7585 105.115 22.9582 108.524 26.1779C111.264 28.8428 111.264 33.2439 108.524 35.9086C105.114 39.1288 103.05 43.3299 102.688 47.7854C102.665 48.1617 102.654 48.5406 102.654 48.9305V54.5153C102.654 55.1388 102.148 55.6442 101.525 55.6442C100.901 55.6442 100.396 56.1031 100.396 56.6692V60.7693C100.396 61.3354 100.901 61.7943 101.525 61.7943H133.132C133.756 61.7943 134.261 61.3354 134.261 60.7693V56.6692C134.261 56.1031 133.756 55.6442 133.132 55.6442C132.509 55.6442 132.004 55.1388 132.004 54.5153V48.9305C132.004 48.5406 131.993 48.1637 131.969 47.7834C131.607 43.3289 129.542 39.1293 126.133 35.9096C123.394 33.2447 123.393 28.8435 126.133 26.1789C129.544 22.9587 131.607 18.7575 131.969 14.3021ZM102.654 3.36818C102.654 2.80208 103.113 2.34316 103.679 2.34316H130.979C131.545 2.34316 132.004 2.80208 132.004 3.36818C132.004 3.93428 131.545 4.3932 130.979 4.3932H103.679C103.113 4.3932 102.654 3.93428 102.654 3.36818ZM132.004 58.7192C132.004 59.2854 131.545 59.7443 130.979 59.7443H103.679C103.113 59.7443 102.654 59.2854 102.654 58.7192C102.654 58.1531 103.113 57.6942 103.679 57.6942H130.979C131.545 57.6942 132.004 58.1531 132.004 58.7192ZM111.625 55.6442C107.917 55.6442 104.911 52.6384 104.911 48.9305C104.911 48.5807 104.921 48.2413 104.943 47.9055C104.943 47.8937 104.95 47.8831 104.961 47.8787C108.284 46.53 112.796 45.806 116.528 49.1958C118.583 51.1492 121.432 52.2473 124.406 52.2318C125.368 52.2181 126.323 52.1204 127.26 51.941C128.492 51.7052 129.746 52.5829 129.746 53.8372C129.746 54.8352 128.937 55.6442 127.939 55.6442H111.625ZM118.761 30.3435C118.355 30.7374 118.355 31.35 118.761 31.7439L124.485 37.3094C127.533 40.1793 129.383 43.9255 129.714 47.901C129.736 48.2413 129.746 48.5807 129.746 48.926C129.746 48.9927 129.706 49.0528 129.644 49.078C128.679 49.4705 127.671 49.7678 126.637 49.9643C126.492 49.9919 126.359 49.8797 126.359 49.7321C126.359 49.6007 126.253 49.4941 126.121 49.4941H124.435C124.251 49.4941 124.102 49.6435 124.102 49.8278C124.102 50.0161 123.946 50.1677 123.758 50.1552C121.621 50.0137 119.613 49.1568 118.127 47.7443C117.053 46.7694 115.931 46.0737 114.797 45.5963C110.914 43.9617 107.127 40.2185 110.173 37.3084L115.896 31.7439C116.302 31.35 116.302 30.7374 115.896 30.3435L110.172 24.778C107.124 21.9081 105.274 18.1619 104.943 14.1864C104.921 13.8461 104.911 13.5068 104.911 13.1614C104.911 9.45107 107.919 6.44324 111.63 6.44324H123.032C126.74 6.44324 129.746 9.44906 129.746 13.1569C129.746 13.5068 129.736 13.8461 129.714 14.1819C129.383 18.1589 127.533 21.9061 124.484 24.777L118.761 30.3435Z" fill="#4F9AF5"/>
<path d="M116.2 44.369C116.2 43.8029 116.659 43.344 117.225 43.344H117.432C117.998 43.344 118.457 43.8029 118.457 44.369C118.457 44.9351 117.998 45.394 117.432 45.394H117.225C116.659 45.394 116.2 44.9351 116.2 44.369Z" fill="#4F9AF5"/>
<path d="M116.2 39.2439C116.2 38.6778 116.659 38.2189 117.225 38.2189H117.432C117.998 38.2189 118.457 38.6778 118.457 39.2439C118.457 39.81 117.998 40.2689 117.432 40.2689H117.225C116.659 40.2689 116.2 39.81 116.2 39.2439Z" fill="#4F9AF5"/>
<path d="M116.2 35.1438C116.2 34.5777 116.659 34.1187 117.225 34.1187H117.432C117.998 34.1187 118.457 34.5777 118.457 35.1438C118.457 35.7099 117.998 36.1688 117.432 36.1688H117.225C116.659 36.1688 116.2 35.7099 116.2 35.1438Z" fill="#4F9AF5"/>
<path d="M120.715 47.444C120.715 46.8779 121.174 46.419 121.74 46.419H121.948C122.514 46.419 122.973 46.8779 122.973 47.444C122.973 48.0101 122.514 48.469 121.948 48.469H121.74C121.174 48.469 120.715 48.0101 120.715 47.444Z" fill="#4F9AF5"/>
<path d="M110.138 9.14344C110.138 9.14335 110.138 9.14361 110.138 9.14376C106.19 12.7554 106.19 18.5836 110.139 22.1949C110.87 22.8606 111.709 23.4188 112.624 23.8514C113.117 24.0848 113.691 23.8374 113.912 23.338C114.155 22.7889 113.878 22.154 113.347 21.8739C112.76 21.5642 112.218 21.1854 111.736 20.7465C108.653 17.9437 108.655 13.4017 111.741 10.6009C114.826 7.8001 119.828 7.8001 122.913 10.6009C125.999 13.4017 126.001 17.9437 122.918 20.7465C122.436 21.1863 121.893 21.5657 121.304 21.8759C120.774 22.1554 120.498 22.7891 120.74 23.3373C120.962 23.8372 121.537 24.0837 122.03 23.8485C125.332 22.2747 127.446 19.1613 127.465 15.7265C127.485 11.9908 125.022 8.61241 121.226 7.17098C117.431 5.72919 113.053 6.50816 110.138 9.14312C110.137 9.14327 110.138 9.14353 110.138 9.14344Z" fill="#4F9AF5"/>
<path d="M119.972 14.7175C120.283 14.4348 120.815 14.4492 120.848 14.8684C120.887 15.3486 120.83 15.9486 121.187 16.2723L121.397 16.4628C121.806 16.8344 122.454 16.8425 122.729 16.3627C123.308 15.3518 123.227 14.1098 122.486 13.1636C122.307 12.9362 122.304 12.6014 122.518 12.4072C122.731 12.213 122.731 11.8767 122.518 11.6824L121.724 10.9621C121.495 10.7541 121.146 10.7541 120.917 10.9621C120.692 11.1664 120.352 11.1653 120.094 11.0041C118.763 10.1718 116.938 10.2771 115.732 11.3201C114.717 12.2426 114.481 13.6051 115.025 14.7316C115.301 15.3018 115.327 16.038 114.858 16.4637L114.685 16.6203C114.374 16.903 113.843 16.8886 113.809 16.4694C113.77 15.9892 113.827 15.3892 113.471 15.0655L113.261 14.8751C112.851 14.5035 112.203 14.4954 111.928 14.9752C111.349 15.9861 111.43 17.228 112.172 18.1742C112.35 18.4016 112.354 18.7364 112.14 18.9306C111.926 19.1249 111.926 19.4612 112.14 19.6554L112.938 20.3801C113.164 20.5856 113.51 20.5856 113.736 20.3801C113.962 20.1746 114.305 20.1798 114.562 20.3464C115.885 21.2061 117.736 21.0965 118.925 20.0178C119.94 19.0952 120.176 17.7329 119.632 16.6063C119.356 16.0361 119.331 15.3 119.799 14.8743L119.972 14.7175ZM118.042 13.5714C117.637 13.9387 116.926 13.8919 117.009 13.3519C117.042 13.1389 117.148 12.9334 117.329 12.7695C117.468 12.6485 117.632 12.5651 117.805 12.5195C118.42 12.3583 118.512 13.1446 118.042 13.5714ZM116.616 17.7654C117.02 17.3981 117.732 17.4449 117.648 17.985C117.616 18.198 117.509 18.4034 117.329 18.5673C117.19 18.6884 117.026 18.7717 116.852 18.8173C116.238 18.9786 116.145 18.1923 116.616 17.7654Z" fill="#4F9AF5"/>
<path d="M115.071 23.8686C115.071 23.3025 115.53 22.8435 116.096 22.8435H116.304C116.87 22.8435 117.329 23.3025 117.329 23.8686C117.329 24.4347 116.87 24.8936 116.304 24.8936H116.096C115.53 24.8936 115.071 24.4347 115.071 23.8686Z" fill="#4F9AF5"/>
<path d="M117.329 25.9186C117.329 25.3525 117.788 24.8936 118.354 24.8936H118.561C119.127 24.8936 119.586 25.3525 119.586 25.9186C119.586 26.4847 119.127 26.9437 118.561 26.9437H118.354C117.788 26.9437 117.329 26.4847 117.329 25.9186Z" fill="#4F9AF5"/>
<path d="M115.071 27.9687C115.071 27.4026 115.53 26.9436 116.096 26.9436H116.304C116.87 26.9436 117.329 27.4026 117.329 27.9687C117.329 28.5348 116.87 28.9937 116.304 28.9937H116.096C115.53 28.9937 115.071 28.5348 115.071 27.9687Z" fill="#4F9AF5"/>
</svg>
