<svg width="102" height="159" viewBox="0 0 102 159" fill="none" xmlns="http://www.w3.org/2000/svg">
<path d="M22.9475 158.408C23.7197 159.19 24.9769 159.199 25.7592 158.425L35.4181 148.864C37.0591 147.216 37.558 144.775 36.8364 142.653L38.9141 140.64C40.0327 139.554 41.5055 138.956 43.0624 138.956H69.5473C74.246 138.956 78.687 137.143 82.0537 133.851C82.1923 133.716 81.0021 135.125 100.122 112.166C102.958 108.795 102.534 103.733 99.1756 100.881C95.8384 98.0555 90.8392 98.4614 87.9956 101.774L76.2396 113.914C74.7551 112.078 72.4914 110.934 70.0455 110.934H47.8296C44.6683 109.605 41.314 108.933 37.8531 108.933C28.2596 108.933 19.8828 113.384 15.3873 121.731C13.4933 121.37 11.4958 121.946 10.0588 123.39L0.581302 132.94C-0.192468 133.719 -0.194025 134.981 0.578189 135.763L22.9475 158.408ZM37.8523 112.935C40.9038 112.935 43.8541 113.552 46.623 114.769C46.8752 114.88 47.1469 114.938 47.4217 114.938H70.0455C72.2057 114.938 74.0303 116.707 74.0303 118.94C74.0303 121.148 72.243 122.944 70.0455 122.944H53.7909C52.6909 122.944 51.7988 123.84 51.7988 124.945C51.7988 126.051 52.6909 126.946 53.7909 126.946H70.0455C74.4398 126.946 78.0144 123.355 78.0144 118.94C78.0144 118.588 77.9895 118.239 77.9443 117.894C89.3166 106.149 90.9202 104.499 90.9887 104.417C92.4086 102.733 94.9292 102.52 96.6059 103.94C98.2842 105.366 98.4967 107.896 97.073 109.59L79.2039 131.052C76.5945 133.568 73.1686 134.953 69.5473 134.953H43.0624C40.4671 134.953 38.0103 135.951 36.1467 137.76L34.4536 139.401L18.8459 123.721C22.4936 116.846 29.3385 112.935 37.8523 112.935ZM12.8783 126.218C13.5353 125.558 14.5442 125.439 15.3452 125.937C15.6901 126.148 14.6999 125.242 32.6009 143.202C33.3973 144.002 33.3545 145.277 32.6118 146.023L24.3775 154.173L4.80201 134.356L12.8783 126.218Z" fill="#4F9AF5"/>
<path d="M75.0426 23.8919C75.0793 23.25 75.0963 22.6039 75.0963 21.9389V12.237C75.0963 11.2716 75.879 10.4889 76.8445 10.4889C77.8099 10.4889 78.5926 9.70615 78.5926 8.74074V1.74815C78.5926 0.78274 77.8099 0 76.8445 0H27.8963C26.9309 0 26.1482 0.78274 26.1482 1.74815V8.74074C26.1482 9.70615 26.9309 10.4889 27.8963 10.4889C28.8618 10.4889 29.6445 11.2716 29.6445 12.237V21.9389C29.6445 22.6039 29.6616 23.2466 29.6983 23.8953C30.2591 31.4923 33.4558 38.6547 38.7352 44.1459C43.0967 48.8178 43.0972 56.0699 38.7352 60.7413C33.4541 66.2333 30.2582 73.3983 29.6983 80.997C29.6616 81.6389 29.6445 82.285 29.6445 82.95V92.6518C29.6445 93.6173 28.8618 94.4 27.8963 94.4C26.9309 94.4 26.1482 95.1827 26.1482 96.1481V103.141C26.1482 104.106 26.9309 104.889 27.8963 104.889H76.8445C77.8099 104.889 78.5926 104.106 78.5926 103.141V96.1481C78.5926 95.1827 77.8099 94.4 76.8445 94.4C75.879 94.4 75.0963 93.6173 75.0963 92.6518V82.95C75.0963 82.285 75.0793 81.6423 75.0426 80.9935C74.4818 73.3966 71.2851 66.2342 66.0056 60.743C61.6442 56.0711 61.6437 48.819 66.0056 44.1476C71.2868 38.6556 74.4826 31.4906 75.0426 23.8919ZM29.6445 5.24444C29.6445 4.27897 30.4272 3.4963 31.3926 3.4963H73.3482C74.3137 3.4963 75.0963 4.27897 75.0963 5.24444C75.0963 6.20992 74.3137 6.99259 73.3482 6.99259H31.3926C30.4272 6.99259 29.6445 6.20992 29.6445 5.24444ZM75.0963 99.6444C75.0963 100.61 74.3137 101.393 73.3482 101.393H31.3926C30.4272 101.393 29.6445 100.61 29.6445 99.6444C29.6445 98.679 30.4272 97.8963 31.3926 97.8963H73.3482C74.3137 97.8963 75.0963 98.679 75.0963 99.6444ZM44.5908 94.4C38.2671 94.4 33.1408 89.2736 33.1408 82.95C33.1408 82.3533 33.1562 81.7746 33.1894 81.2018C33.1894 81.1816 33.2011 81.1633 33.2196 81.155C38.3656 78.8556 45.3524 77.6221 51.131 83.4024C54.3123 86.7339 58.7254 88.6067 63.3313 88.5802C64.6741 88.5592 66.0096 88.4216 67.3231 88.1703C69.4223 87.7689 71.6 89.2431 71.6 91.3804C71.6 93.0481 70.2481 94.4 68.5804 94.4H44.5908ZM54.5889 51.2503C53.9606 51.922 53.9606 52.9668 54.5889 53.6386L63.4534 63.1305C68.1737 68.025 71.0384 74.4141 71.5514 81.1941C71.5847 81.7746 71.6 82.3533 71.6 82.9423C71.6 83.0567 71.5334 83.1607 71.4289 83.2075C69.9533 83.8675 68.4122 84.3693 66.8316 84.7035C66.585 84.7556 66.3556 84.5655 66.3556 84.3133C66.3556 84.0912 66.1755 83.9111 65.9534 83.9111H63.4276C63.1137 83.9111 62.8593 84.1656 62.8593 84.4794C62.8593 84.8007 62.593 85.0593 62.2727 85.0346C58.9832 84.7813 55.895 83.3228 53.6064 80.927C52.2415 79.5617 50.8256 78.5174 49.3905 77.7367C43.2605 74.4022 36.4814 68.1866 41.2891 63.1288L50.1519 53.6386C50.7802 52.9668 50.7802 51.922 50.1519 51.2503L41.2874 41.7584C36.5671 36.8639 33.7024 30.4748 33.1894 23.6947C33.1562 23.1143 33.1408 22.5356 33.1408 21.9466C33.1408 15.6187 38.2706 10.4889 44.5985 10.4889H60.15C66.4737 10.4889 71.6 15.6152 71.6 21.9389C71.6 22.5356 71.5847 23.1143 71.5514 23.6871C71.0384 30.4697 68.1737 36.8605 63.4517 41.7567L54.5889 51.2503Z" fill="#4F9AF5"/>
<path d="M50.6223 75.1704C50.6223 74.2049 51.4049 73.4222 52.3704 73.4222C53.3359 73.4222 54.1185 74.2049 54.1185 75.1704C54.1185 76.1359 53.3359 76.9185 52.3704 76.9185C51.4049 76.9185 50.6223 76.1359 50.6223 75.1704Z" fill="#4F9AF5"/>
<path d="M50.6223 66.4297C50.6223 65.4642 51.4049 64.6815 52.3704 64.6815C53.3359 64.6815 54.1185 65.4642 54.1185 66.4297C54.1185 67.3951 53.3359 68.1778 52.3704 68.1778C51.4049 68.1778 50.6223 67.3951 50.6223 66.4297Z" fill="#4F9AF5"/>
<path d="M50.6223 59.437C50.6223 58.4715 51.4049 57.6888 52.3704 57.6888C53.3359 57.6888 54.1185 58.4715 54.1185 59.437C54.1185 60.4025 53.3359 61.1851 52.3704 61.1851C51.4049 61.1851 50.6223 60.4025 50.6223 59.437Z" fill="#4F9AF5"/>
<path d="M57.615 80.4148C57.615 79.4493 58.3977 78.6666 59.3631 78.6666C60.3286 78.6666 61.1113 79.4493 61.1113 80.4148C61.1113 81.3802 60.3286 82.1629 59.3631 82.1629C58.3977 82.1629 57.615 81.3802 57.615 80.4148Z" fill="#4F9AF5"/>
<path d="M41.2344 15.094C41.2348 15.0938 41.235 15.0942 41.2348 15.0945C35.1202 21.2541 35.1206 31.194 41.2361 37.353C42.3165 38.4359 43.5475 39.352 44.8885 40.0745C45.7382 40.5324 46.7623 40.0898 47.1223 39.1942C47.4825 38.2982 47.0392 37.2904 46.2041 36.8055C45.2945 36.2772 44.4556 35.6313 43.7098 34.8827C38.9349 30.1026 38.9383 22.3563 43.7167 17.5796C48.4951 12.803 56.2405 12.803 61.0189 17.5796C65.7973 22.3563 65.8007 30.1026 61.0257 34.8827C60.2789 35.6328 59.4385 36.28 58.527 36.809C57.6934 37.2928 57.2508 38.2986 57.6103 39.1929C57.9706 40.0891 58.997 40.5301 59.8459 40.0692C64.8478 37.3535 68.0392 32.1045 68.0678 26.3212C68.0986 19.95 64.2839 14.1883 58.4061 11.73C52.5289 9.27105 45.7496 10.5996 41.2341 15.0935C41.2338 15.0937 41.2341 15.0941 41.2344 15.094Z" fill="#4F9AF5"/>
<path d="M56.3434 24.7213C56.8796 24.1851 57.8262 24.2285 57.826 24.9868C57.8257 25.7446 57.7489 26.6564 58.285 27.192L58.5512 27.4581C59.2344 28.1408 60.377 28.1455 60.7986 27.2765C61.6242 25.5747 61.4756 23.5187 60.3525 21.9445C60.0722 21.5516 60.0648 21.0016 60.4061 20.6603C60.7474 20.3189 60.7474 19.7655 60.4061 19.4242L59.1776 18.1957C58.8322 17.8503 58.2721 17.8503 57.9267 18.1957C57.5871 18.5353 57.0421 18.5344 56.6462 18.2626C54.5859 16.8482 51.7634 17.0294 49.8985 18.8062C48.2749 20.4298 47.938 22.8528 48.8879 24.8076C49.3097 25.6757 49.3452 26.7772 48.6627 27.4596L48.3975 27.7248C47.8613 28.261 46.9147 28.2176 46.915 27.4593C46.9152 26.7015 46.992 25.7897 46.456 25.2541L46.1897 24.988C45.5065 24.3053 44.3639 24.3007 43.9424 25.1696C43.1167 26.8714 43.2654 28.9274 44.3884 30.5016C44.6687 30.8945 44.6761 31.4445 44.3348 31.7858C43.9935 32.1272 43.9935 32.6806 44.3348 33.0219L45.5707 34.2578C45.9121 34.5992 46.4655 34.5992 46.8068 34.2578C47.1481 33.9165 47.6981 33.9239 48.091 34.2043C50.1398 35.6662 53.0035 35.478 54.8425 33.6399C56.4655 32.0162 56.8021 29.5936 55.8524 27.6385C55.4308 26.7704 55.3956 25.6691 56.0779 24.9867L56.3434 24.7213ZM53.5936 22.5271C52.9181 23.2026 51.7015 23.0955 51.8944 22.1599C51.961 21.8368 52.1197 21.529 52.3705 21.2782C52.6123 21.0463 52.9032 20.8956 53.2087 20.826C54.154 20.611 54.2791 21.8416 53.5936 22.5271ZM51.1473 29.9173C51.8229 29.2418 53.0394 29.3489 52.8465 30.2845C52.7799 30.6076 52.6212 30.9154 52.3705 31.1662C52.1287 31.3981 51.8378 31.5488 51.5322 31.6184C50.5869 31.8334 50.4619 30.6028 51.1473 29.9173Z" fill="#4F9AF5"/>
<path d="M48.8743 40.2074C48.8743 39.2419 49.657 38.4592 50.6225 38.4592C51.5879 38.4592 52.3706 39.2419 52.3706 40.2074C52.3706 41.1729 51.5879 41.9555 50.6225 41.9555C49.657 41.9555 48.8743 41.1729 48.8743 40.2074Z" fill="#4F9AF5"/>
<path d="M52.3704 43.7037C52.3704 42.7382 53.1531 41.9556 54.1186 41.9556C55.084 41.9556 55.8667 42.7382 55.8667 43.7037C55.8667 44.6692 55.084 45.4519 54.1186 45.4519C53.1531 45.4519 52.3704 44.6692 52.3704 43.7037Z" fill="#4F9AF5"/>
<path d="M48.8743 47.2001C48.8743 46.2346 49.657 45.4519 50.6225 45.4519C51.5879 45.4519 52.3706 46.2346 52.3706 47.2001C52.3706 48.1655 51.5879 48.9482 50.6225 48.9482C49.657 48.9482 48.8743 48.1655 48.8743 47.2001Z" fill="#4F9AF5"/>
</svg>
